<?xml version="1.0" encoding="UTF-8" standalone="no"?>
<!-- Created with Inkscape (http://www.inkscape.org/) -->

<svg
   width="32"
   height="32"
   viewBox="0 0 32 32"
   version="1.1"
   id="svg1"
   inkscape:version="1.3.2 (091e20e, 2023-11-25)"
   sodipodi:docname="Logo.svg"
   xmlns:inkscape="http://www.inkscape.org/namespaces/inkscape"
   xmlns:sodipodi="http://sodipodi.sourceforge.net/DTD/sodipodi-0.dtd"
   xmlns="http://www.w3.org/2000/svg"
   xmlns:svg="http://www.w3.org/2000/svg">
  <sodipodi:namedview
     id="namedview1"
     pagecolor="#ffffff"
     bordercolor="#000000"
     borderopacity="0.25"
     inkscape:showpageshadow="2"
     inkscape:pageopacity="0.0"
     inkscape:pagecheckerboard="0"
     inkscape:deskcolor="#d1d1d1"
     inkscape:document-units="px"
     inkscape:zoom="8.3784575"
     inkscape:cx="41.296384"
     inkscape:cy="19.335301"
     inkscape:window-width="1440"
     inkscape:window-height="809"
     inkscape:window-x="0"
     inkscape:window-y="0"
     inkscape:window-maximized="0"
     inkscape:current-layer="g1" />
  <defs
     id="defs1">
    <inkscape:path-effect
       effect="lattice2"
       gridpoint0="-17.762864,-14.599711"
       gridpoint1="-1.9591178,-14.716516"
       gridpoint2="-20.459705,-8.0393331"
       gridpoint3="0.21057888,-7.9691048"
       gridpoint4="-13.213622,-16.026074"
       gridpoint5="-5.8524552,-15.159421"
       gridpoint6="-16.963793,-6.2061204"
       gridpoint7="-4.1961853,-7.1615586"
       gridpoint8x9="-10.114349,-15.499955"
       gridpoint10x11="-8.2784981,-5.8141028"
       gridpoint12="-18.253547,-13.067078"
       gridpoint13="-1.9591178,-13.067078"
       gridpoint14="-18.253547,-9.7682021"
       gridpoint15="-1.9591178,-9.7682021"
       gridpoint16="-14.17994,-13.067078"
       gridpoint17="-6.0327251,-13.067078"
       gridpoint18="-14.17994,-9.7682021"
       gridpoint19="-6.0327251,-9.7682021"
       gridpoint20x21="-10.106332,-13.067078"
       gridpoint22x23="-10.106332,-9.7682021"
       gridpoint24x26="-18.253547,-11.41764"
       gridpoint25x27="-1.9591178,-11.41764"
       gridpoint28x30="-14.17994,-11.41764"
       gridpoint29x31="-6.0327251,-11.41764"
       gridpoint32x33x34x35="-10.106332,-11.41764"
       id="path-effect12"
       is_visible="true"
       lpeversion="1"
       horizontal_mirror="false"
       vertical_mirror="false"
       perimetral="false"
       live_update="true" />
    <clipPath
       clipPathUnits="userSpaceOnUse"
       id="clipPath9">
      <g
         inkscape:label="Clip"
         id="use9"
         style="fill:none;stroke:#000000;stroke-opacity:1">
        <rect
           style="fill:none;stroke:#000000;stroke-linecap:round;stroke-opacity:1"
           id="rect13"
           width="26.305084"
           height="25.491526"
           x="2.8474579"
           y="3.2542372"
           ry="3.9441254" />
      </g>
    </clipPath>
    <clipPath
       clipPathUnits="userSpaceOnUse"
       id="clipPath9-7">
      <g
         inkscape:label="Clip"
         id="use9-3"
         style="fill:none;stroke:#000000;stroke-opacity:1">
        <rect
           style="fill:none;stroke:#000000;stroke-linecap:round;stroke-opacity:1"
           id="rect12"
           width="26.305084"
           height="25.491526"
           x="2.8474579"
           y="3.2542372"
           ry="3.9441254" />
      </g>
    </clipPath>
  </defs>
  <g
     inkscape:label="Ebene 1"
     inkscape:groupmode="layer"
     id="layer1">
    <g
       id="g1">
      <rect
         style="fill:none;fill-opacity:1;stroke:#000000;stroke-width:0.600001;stroke-linecap:round;stroke-linejoin:round;stroke-opacity:1;paint-order:markers fill stroke"
         id="rect14"
         width="28.406183"
         height="28.411171"
         x="1.7969084"
         y="1.7944145"
         ry="4.407825" />
      <rect
         style="fill:#9ec5fe;fill-opacity:1;stroke:none;stroke-width:0.6;stroke-linecap:round;stroke-linejoin:round;stroke-opacity:1;paint-order:markers fill stroke"
         id="rect15"
         width="15.038568"
         height="32"
         x="8.60007"
         y="0"
         ry="3.9441254" />
      <rect
         style="fill:#9ec5fe;fill-opacity:1;stroke:none;stroke-width:0.6;stroke-linecap:round;stroke-linejoin:round;stroke-opacity:1;paint-order:markers fill stroke"
         id="rect15-6"
         width="15.038568"
         height="32"
         x="8.7118521"
         y="-31.765476"
         ry="3.9441254"
         transform="rotate(89.16621)" />
    </g>
    <g
       id="g12"
       transform="matrix(0.88855347,0,0,0.9607995,60.166942,-19.262781)"
       style="stroke-width:1.08228">
      <path
         d="m -37.678291,34.023162 c -0.04426,2.334493 -5.400242,4.219066 -11.99428,4.220347 -6.484097,-0.0039 -11.786857,-1.830604 -11.975485,-4.125258 -0.03352,0.258576 -0.05546,0.518144 -0.06578,0.778141 -1.8e-5,5.660328 5.391041,10.248943 12.041267,10.248959 6.650226,-1.6e-5 12.041285,-4.588631 12.041267,-10.248959 -0.0011,-0.291513 -0.01674,-0.582854 -0.04698,-0.87323 z"
         style="fill:#0474bc;fill-opacity:1;stroke:#000000;stroke-width:1.08228;stroke-linecap:round;paint-order:stroke fill markers"
         id="path12"
         sodipodi:nodetypes="cccccccc" />
      <path
         d="m -37.737809,33.555644 a 12.001136,4.2488672 0 0 0 -11.934762,-3.809881 12.001136,4.2488672 0 0 0 -11.941027,3.947759 12.0413,10.248931 0 0 0 -0.03446,0.424729 12.001136,4.2488672 0 0 0 11.975484,4.125258 12.001136,4.2488672 0 0 0 11.99428,-4.220347 12.0413,10.248931 0 0 0 -0.05952,-0.467518 z"
         style="fill:#fbcc64;fill-opacity:1;stroke:#000000;stroke-width:1.08228;stroke-linecap:round;paint-order:stroke fill markers"
         id="path11" />
      <path
         d="m -16.086264,-11.76028 c -0.203595,0.617062 -0.458157,1.16179 -0.776302,1.620254 -0.316179,0.4584252 -0.643581,0.7700315 -0.978379,0.9475816 -0.231207,0.1222916 -0.458542,0.1802544 -0.67722,0.1823244 -0.217958,0.00265 -0.468651,-0.05799 -0.731739,-0.1665869 -0.266321,-0.109931 -0.633366,-0.2648708 -0.633366,-0.2648708 0.676503,-1.6456723 2.029104,-4.9360293 2.029104,-4.9360293 0.295766,-0.07518 0.87686,-0.229737 0.87686,-0.229737 0.339871,-0.09109 0.584843,-0.123343 0.746796,-0.08804 0.163401,0.032 0.282152,0.109821 0.359084,0.235682 0.130062,0.217602 0.178775,0.556936 0.149659,1.014422 -0.02897,0.455166 -0.148398,1.030041 -0.364497,1.685004 z m -0.494164,-0.05029 c 0.180623,-0.504074 0.285253,-0.933786 0.315933,-1.268011 0.03082,-0.33572 -0.0092,-0.584613 -0.12015,-0.74377 -0.08107,-0.115512 -0.186274,-0.180927 -0.316697,-0.201671 -0.129571,-0.02338 -0.298667,-0.01188 -0.508923,0.03078 -0.141468,0.02871 -0.424289,0.08656 -0.424289,0.08656 -0.562556,1.334861 -1.687332,4.0037829 -1.687332,4.0037829 0.110097,0.034749 0.348203,0.1109118 0.348203,0.1109118 0.188026,0.06024 0.373697,0.090782 0.551195,0.08409 0.178683,-0.00623 0.3689,-0.064721 0.567881,-0.1829277 0.248965,-0.1477096 0.478856,-0.3767076 0.688786,-0.6911036 0.211776,-0.314433 0.404786,-0.72462 0.585393,-1.228645 z m 2.474497,-2.673805 c -0.157925,0.0225 -0.475097,0.07055 -0.475097,0.07055 0.09005,-0.314131 0.270097,-0.942204 0.270097,-0.942204 0.152717,-0.03791 0.455039,-0.10979 0.455039,-0.10979 -0.02282,0.08959 -0.227215,0.891855 -0.250039,0.981445 z m -1.707028,6.5524358 c -0.182529,-0.05575 -0.540297,-0.170169 -0.540297,-0.170169 0.513829,-1.8037423 1.541178,-5.4101448 1.541178,-5.4101448 0.146091,-0.01028 0.438378,-0.02919 0.438378,-0.02919 -0.0056,0.0217 -1.43369,5.5878003 -1.439259,5.6095048 z m 3.94451,0.1400388 c -0.08497,1.1251337 -0.2769,1.9227549 -0.61053,2.3904271 -0.331402,0.4645485 -0.80997,0.6187405 -1.415648,0.4471868 -0.200035,-0.056658 -0.391188,-0.1393568 -0.57189,-0.2459124 -0.179124,-0.1022004 -0.35056,-0.2252013 -0.513185,-0.3672237 0.06717,-0.3443697 0.201468,-1.0329025 0.201468,-1.0329025 0.01049,0.00312 0.03149,0.00933 0.03149,0.00933 0.0836,0.092677 0.223461,0.2184712 0.420406,0.3738223 0.196922,0.1595005 0.405779,0.2691106 0.62289,0.3247088 0.208516,0.053397 0.387432,0.051155 0.534717,-0.00586 0.147339,-0.057034 0.266879,-0.1578209 0.358937,-0.3011131 0.09126,-0.1356092 0.162943,-0.3076084 0.216123,-0.5155005 0.0532,-0.2079359 0.09235,-0.4441948 0.118812,-0.7087433 0.01984,-0.1983319 0.05951,-0.5948768 0.05951,-0.5948768 -0.194991,0.2386918 -0.382134,0.4065298 -0.556619,0.5069151 -0.17211,0.09701 -0.382434,0.1187731 -0.627933,0.06526 -0.409904,-0.089349 -0.687975,-0.4375946 -0.817359,-1.0045628 -0.127857,-0.5751323 -0.08071,-1.3066222 0.116278,-2.2343357 0.107405,-0.505826 0.236035,-0.941035 0.378633,-1.304971 0.145155,-0.367784 0.301305,-0.690068 0.46491,-0.963913 0.152301,-0.255971 0.312716,-0.460532 0.480232,-0.609144 0.168538,-0.152658 0.320152,-0.234506 0.460078,-0.240294 0.147484,-0.0061 0.265009,0.0273 0.354793,0.10118 0.09181,0.07003 0.184958,0.181344 0.281976,0.335818 0.01859,-0.09342 0.05534,-0.280506 0.05534,-0.280506 0.133608,-0.0027 0.399281,-0.0068 0.399281,-0.0068 0.0023,-0.03064 -0.445015,5.8926722 -0.442701,5.8620336 z m -0.456481,-1.1306324 c 0.118456,-1.1841562 0.355296,-3.5517582 0.355296,-3.5517582 -0.107953,-0.135073 -0.209521,-0.229243 -0.307148,-0.284263 -0.09554,-0.05882 -0.193728,-0.08803 -0.295999,-0.08877 -0.246485,-0.0018 -0.472288,0.193482 -0.68411,0.569563 -0.210622,0.373949 -0.391159,0.92117 -0.522417,1.635336 -0.125554,0.6831301 -0.160663,1.2053456 -0.09608,1.5857206 0.06404,0.3771712 0.249522,0.6021863 0.550947,0.6570747 0.161129,0.029341 0.33069,-0.00106 0.505106,-0.094371 0.176909,-0.096874 0.342036,-0.2395235 0.494404,-0.4285316 z m 2.180603,-5.8733442 c -0.145845,7.1e-4 -0.439879,0.0061 -0.439879,0.0061 0.01214,-0.392867 0.0364,-1.178364 0.0364,-1.178364 0.137588,-0.0067 0.410587,-0.01395 0.410587,-0.01395 -6.59e-4,0.110104 -0.0064,1.07613 -0.0071,1.186234 z m -0.08324,7.9305328 c -0.186678,-0.010766 -0.563806,-0.041276 -0.563806,-0.041276 0.06631,-2.251505 0.1989,-6.7531641 0.1989,-6.7531641 0.139076,-3.3e-5 0.414995,0.0013 0.414995,0.0013 -1.92e-4,0.02595 -0.0499,6.7671903 -0.05009,6.7931428 z m 3.8062448,-4.5764648 c 0.1194573,0.760926 0.1653709,1.4566756 0.1232674,2.1027738 -0.04055,0.6453543 -0.1566523,1.169925 -0.3541919,1.5645022 -0.1370274,0.2730108 -0.3092716,0.4834743 -0.5165601,0.6250858 -0.2048797,0.1409052 -0.4935404,0.2352189 -0.8684503,0.2652303 -0.3443417,0.027564 -1.0571619,0.046773 -1.0571619,0.046773 -0.1080312,-3.0265703 -0.3240309,-9.0778955 -0.3240309,-9.0778955 0.2358873,0.0082 0.7021704,0.04264 0.7021704,0.04264 0.2715164,0.02348 0.492215,0.114374 0.6647929,0.259997 0.173504,0.141928 0.3303136,0.328923 0.4697859,0.55546 0.2381062,0.390005 0.46071,0.893912 0.6615064,1.496098 0.2007406,0.602016 0.3715879,1.308556 0.4988716,2.119334 z m -0.4443055,0.0079 c -0.092809,-0.668997 -0.2154933,-1.237317 -0.3594894,-1.700851 -0.1441544,-0.464042 -0.3129783,-0.840588 -0.5030609,-1.121707 -0.1386049,-0.204396 -0.2751206,-0.350905 -0.4117946,-0.43626 -0.1370686,-0.08933 -0.2950772,-0.141157 -0.476362,-0.152246 -0.1223132,-0.0075 -0.3686656,-0.01958 -0.3686656,-0.01958 0.1316252,2.326763 0.3947955,6.9788929 0.3947955,6.9788929 0.1676648,-0.00629 0.4974467,-0.026153 0.4974467,-0.026153 0.2520733,-0.017108 0.4638996,-0.079858 0.635575,-0.1824112 0.1735565,-0.1028431 0.3201548,-0.2771496 0.4386174,-0.5185825 0.1478395,-0.3008646 0.2314796,-0.6809873 0.2560261,-1.1376461 0.026152,-0.4580848 -0.01042,-1.0154878 -0.1030858,-1.6834538 0,0 -2.4e-6,-1e-6 -2.4e-6,-1e-6 z m 0.898529,-3.033694 c -0.1309998,-0.01969 -0.3946073,-0.05739 -0.3946073,-0.05739 -0.064113,-0.35227 -0.1923013,-1.056598 -0.1923013,-1.056598 0.1278516,0.02893 0.3828436,0.08985 0.3828436,0.08985 0.019223,0.09647 0.1848422,0.927667 0.204065,1.02414 z m 1.3383137,6.8579802 c -0.1375404,0.048876 -0.4196913,0.141605 -0.4196913,0.141605 -0.3686381,-2.0144934 -1.1056942,-6.0422722 -1.1056942,-6.0422722 0.1207381,0.0076 0.3599358,0.02329 0.3599358,0.02329 0.0044,0.0222 1.161047,5.8551705 1.1654497,5.8773732 z m 1.9360674,-2.3698289 c 0.1206838,0.4293195 0.1448655,0.8104483 0.06745,1.1625527 -0.075824,0.3498413 -0.2512901,0.6071512 -0.533612,0.7405557 -0.1604033,0.075795 -0.3220559,0.099708 -0.4839088,0.066116 -0.1612089,-0.037401 -0.3036432,-0.096985 -0.4260411,-0.1772162 -0.078073,-0.3524972 -0.2341707,-1.0572803 -0.2341707,-1.0572803 0.00676,-0.00201 0.020247,-0.00604 0.020247,-0.00604 0.1698594,0.1877463 0.3425568,0.3181502 0.5169842,0.3944459 0.1734478,0.072983 0.3244538,0.07964 0.4522732,0.028285 0.158363,-0.063626 0.2643139,-0.1753836 0.3195252,-0.3280323 0.055402,-0.1531757 0.048289,-0.3534307 -0.019448,-0.604918 -0.051985,-0.1930045 -0.1148766,-0.3324999 -0.1882564,-0.4193929 -0.073385,-0.0869 -0.1862299,-0.148784 -0.3395569,-0.187508 -0.057172,-0.01475 -0.1306358,-0.03037 -0.2221997,-0.048 -0.090127,-0.0179 -0.1744955,-0.04156 -0.2530159,-0.07099 -0.2184588,-0.08239 -0.3967207,-0.241434 -0.5337224,-0.4769 -0.1363896,-0.238881 -0.2441947,-0.544327 -0.325843,-0.912337 -0.051092,-0.230286 -0.08124,-0.448563 -0.091171,-0.651694 -0.00867,-0.203193 0.00533,-0.38293 0.041414,-0.537382 0.034371,-0.151367 0.094083,-0.265878 0.1790774,-0.344357 0.085539,-0.08164 0.1929707,-0.11454 0.3232237,-0.103415 0.1216312,0.01039 0.2537989,0.05917 0.3967465,0.141619 0.1431924,0.0795 0.2697773,0.17076 0.3790219,0.273367 0.079512,0.285506 0.2384882,0.856345 0.2384882,0.856345 -0.00601,3.52e-4 -0.018046,0.0011 -0.018046,0.0011 -0.1283781,-0.145574 -0.2695374,-0.271087 -0.4227078,-0.375477 -0.1541549,-0.107481 -0.2917467,-0.165031 -0.413127,-0.165707 -0.1263702,-7.04e-4 -0.2180414,0.06033 -0.275662,0.188916 -0.058219,0.125034 -0.058513,0.315755 9.28e-4,0.567455 0.052633,0.222872 0.1191712,0.387588 0.2004855,0.493308 0.080015,0.105829 0.1876306,0.184549 0.322564,0.235615 0.07443,0.02769 0.1560543,0.05343 0.2447776,0.077 0.090037,0.0234 0.1649512,0.04494 0.2257098,0.06547 0.1839498,0.06091 0.3478049,0.187733 0.4908462,0.376251 0.1439126,0.191477 0.2644807,0.455904 0.3607309,0.798304 0,0 -4.4e-6,-1.37e-5 -4.4e-6,-1.37e-5 z m 2.43953785,0.5681083 c -0.1059607,0.020121 -0.31650223,0.073636 -0.31650223,0.073636 -0.23686196,-0.7392219 -0.71044382,-2.2172219 -0.71044382,-2.2172219 -0.057338,-0.178945 -0.1162101,-0.345844 -0.1767274,-0.50121 -0.061244,-0.157644 -0.1202809,-0.280512 -0.1770581,-0.368671 -0.060927,-0.09744 -0.1268847,-0.16975 -0.1976044,-0.216601 -0.071403,-0.04917 -0.1518743,-0.07433 -0.2406011,-0.07418 -0.091138,1.58e-4 -0.1720212,0.04612 -0.2418883,0.142117 -0.069931,0.09609 -0.1272556,0.221219 -0.1720257,0.377929 0.3251583,1.067754 0.9752797,3.2026202 0.9752797,3.2026202 -0.1071881,0.046909 -0.3242167,0.1466665 -0.3242167,0.1466665 -0.6122589,-2.0699237 -1.8364098,-6.2085277 -1.8364098,-6.2085277 0.1134596,0.02997 0.3410395,0.08671 0.3410395,0.08671 0.2195014,0.720798 0.6583727,2.161962 0.6583727,2.161962 0.047465,-0.186218 0.1114411,-0.324821 0.1918931,-0.420528 0.080407,-0.09565 0.1801962,-0.137391 0.2986988,-0.130582 0.2160542,0.01241 0.4244879,0.149102 0.6179917,0.400476 0.1944607,0.252617 0.365535,0.607642 0.5153444,1.073525 0.26495246,0.823961 0.52990494,1.647922 0.79485741,2.4718832 z"
         id="text12"
         style="font-size:5.30243px;stroke-width:0.999999;stroke-linecap:round;paint-order:stroke fill markers"
         aria-label="DigiDish"
         inkscape:original-d="m -15.72413,-12.006072 q 0,0.676778 -0.178949,1.226869 -0.176939,0.55009 -0.472507,0.8534735 -0.205088,0.2100346 -0.458432,0.3033833 -0.251332,0.093349 -0.663519,0.093349 h -0.75601 v -4.9641498 h 0.747967 q 0.438325,0 0.69569,0.106683 0.259376,0.103349 0.438326,0.286714 0.305621,0.316718 0.476527,0.843472 0.170907,0.526753 0.170907,1.250206 z m -0.416208,-0.01 q 0,-0.583429 -0.122651,-0.983495 -0.12265,-0.400065 -0.365941,-0.630104 -0.176938,-0.166694 -0.375994,-0.230038 -0.199056,-0.06668 -0.476528,-0.06668 h -0.373984 v 3.830631 h 0.373984 q 0.287525,0 0.500656,-0.07001 0.215141,-0.07001 0.394091,-0.260043 0.223183,-0.236706 0.33377,-0.623436 0.112597,-0.38673 0.112597,-0.966825 z m 1.435615,-1.860305 h -0.426261 v -0.650107 h 0.426261 z m -0.02413,4.3473808 h -0.378005 v -3.7239458 h 0.378005 z m 2.569631,-0.4234029 q 0,0.9468223 -0.259376,1.3902287 -0.259376,0.4434063 -0.798234,0.4434063 -0.17895,0 -0.349856,-0.043341 -0.168896,-0.040007 -0.33377,-0.1166862 v -0.6401053 h 0.02011 q 0.09249,0.060009 0.293557,0.1466907 0.201066,0.090015 0.402132,0.090015 0.193025,0 0.319697,-0.07668 0.126671,-0.07668 0.197045,-0.2133685 0.07038,-0.1300214 0.100533,-0.3133848 0.03016,-0.1833636 0.03016,-0.4100675 v -0.3400563 q -0.170906,0.2267043 -0.327738,0.3400563 -0.154821,0.1100174 -0.396102,0.1100174 -0.402133,0 -0.639391,-0.4800797 -0.235248,-0.483412 -0.235248,-1.360223 0,-0.480079 0.08043,-0.826803 0.08244,-0.350058 0.223183,-0.603433 0.130693,-0.236705 0.317686,-0.366726 0.186992,-0.133355 0.371973,-0.133355 0.195034,0 0.325727,0.06668 0.132705,0.06334 0.279483,0.1967 l 0.02413,-0.160027 h 0.353877 z m -0.378005,-0.6000989 v -2.030333 q -0.1508,-0.113354 -0.281494,-0.160027 -0.128682,-0.05001 -0.257365,-0.05001 -0.311653,0 -0.490602,0.346724 -0.178949,0.346723 -0.178949,1.006832 0,0.626769 0.132704,0.950156 0.132704,0.323386 0.440336,0.323386 0.164874,0 0.329748,-0.103349 0.166886,-0.106684 0.305622,-0.28338 z m 1.528106,-3.323879 h -0.426261 v -0.650107 h 0.426261 z m -0.02413,4.3473808 h -0.378005 v -3.7239458 h 0.378005 z m 3.3075445,-2.4770738 q 0,0.676778 -0.1789493,1.226868 -0.1769387,0.550091 -0.4725063,0.8534739 -0.205088,0.2100346 -0.458432,0.3033833 -0.2513335,0.093349 -0.6635193,0.093349 h -0.7560106 v -4.9641512 h 0.7479674 q 0.4383252,0 0.6956905,0.106684 0.2593759,0.103349 0.4383252,0.286713 0.3056214,0.31672 0.4765275,0.843473 0.1709069,0.526753 0.1709069,1.250205 z m -0.4162078,-0.01001 q 0,-0.583429 -0.1226508,-0.983495 -0.1226508,-0.400065 -0.3659411,-0.630104 -0.1769387,-0.166694 -0.3759941,-0.230037 -0.1990561,-0.06668 -0.4765282,-0.06668 H -9.85701 v 3.830631 h 0.3739835 q 0.2875251,0 0.5006555,-0.07001 0.2151418,-0.07001 0.3940911,-0.260043 0.2231834,-0.236705 0.3337698,-0.623436 0.1125978,-0.38673 0.1125978,-0.966825 z m 1.4356151,-1.860305 h -0.4262616 v -0.650107 h 0.4262616 z m -0.024129,4.3473812 H -7.1084337 V -13.25295 h 0.3780055 z m 2.3524788,-1.0735102 q 0,0.510084 -0.2553545,0.8368046 -0.2533439,0.3267205 -0.6936796,0.3267205 -0.2493225,0 -0.4584317,-0.096682 -0.2070986,-0.100016 -0.3478452,-0.2167024 v -0.7034497 h 0.020107 q 0.1789492,0.22337 0.3981117,0.356726 0.2191626,0.1300214 0.4202291,0.1300214 0.2493225,0 0.3900691,-0.1333554 0.1407466,-0.133355 0.1407466,-0.420069 0,-0.220036 -0.076405,-0.333388 -0.076405,-0.113353 -0.2935572,-0.193366 -0.080427,-0.03 -0.2111199,-0.07001 -0.1286826,-0.04001 -0.2352478,-0.08668 -0.2955679,-0.130022 -0.4202292,-0.380063 -0.1226506,-0.253375 -0.1226506,-0.620102 0,-0.230038 0.056299,-0.433405 0.058309,-0.203366 0.1749278,-0.363393 0.1125973,-0.156692 0.2855146,-0.246707 0.1749278,-0.09334 0.390069,-0.09334 0.2010666,0 0.4061544,0.08335 0.2070986,0.08002 0.3438238,0.196699 v 0.670111 h -0.020107 q -0.144768,-0.176696 -0.3518665,-0.296716 -0.2070985,-0.123359 -0.4061544,-0.123359 -0.2070986,0 -0.3498558,0.133355 -0.1427573,0.130022 -0.1427573,0.390064 0,0.230039 0.086459,0.346724 0.084448,0.116687 0.2734505,0.190032 0.1045546,0.04001 0.2332371,0.08001 0.1306933,0.04001 0.217152,0.07335 0.2633971,0.100016 0.4061544,0.34339 0.1427572,0.246707 0.1427572,0.653441 z m 2.4188307,1.0735102 h -0.3780051 v -2.1203492 q 0,-0.256708 -0.018096,-0.480079 -0.018096,-0.226703 -0.066351,-0.353391 -0.050267,-0.140023 -0.144768,-0.206701 -0.094501,-0.07001 -0.2453012,-0.07001 -0.1548212,0 -0.3237171,0.126694 -0.1688959,0.126694 -0.3237172,0.323387 v 2.780457 h -0.3780051 v -5.18752 h 0.3780051 v 1.876976 q 0.1769386,-0.243374 0.3659412,-0.380063 0.1890025,-0.136689 0.3880584,-0.136689 0.3639305,0 0.5549437,0.363393 0.1910132,0.363394 0.1910132,1.046839 z"
         inkscape:path-effect="#path-effect12"
         transform="matrix(1.1254247,0,0,1.0407999,-38.289633,45.878115)" />
    </g>
  </g>
</svg>
